<?xml version="1.0" encoding="UTF-8"?>
<!DOCTYPE svg PUBLIC "-//W3C//DTD SVG 1.1//EN" "http://www.w3.org/Graphics/SVG/1.1/DTD/svg11.dtd">
<svg xmlns="http://www.w3.org/2000/svg" version="1.1" width="48px" height="48px" style="shape-rendering:geometricPrecision; text-rendering:geometricPrecision; image-rendering:optimizeQuality; fill-rule:evenodd; clip-rule:evenodd" xmlns:xlink="http://www.w3.org/1999/xlink">
<g><path style="opacity:0.996" fill="#df5129" d="M 29.5,8.5 C 25.5,8.5 21.5,8.5 17.5,8.5C 17.5,7.5 17.5,6.5 17.5,5.5C 21.5,5.5 25.5,5.5 29.5,5.5C 29.5,6.5 29.5,7.5 29.5,8.5 Z"/></g>
<g><path style="opacity:1" fill="#f06038" d="M 17.5,8.5 C 21.5,8.5 25.5,8.5 29.5,8.5C 33.8461,8.33432 38.1794,8.50098 42.5,9C 43.435,11.3806 43.7683,13.8806 43.5,16.5C 37.9738,16.1786 32.6405,16.5119 27.5,17.5C 24.8333,14.8333 22.1667,14.8333 19.5,17.5C 14.3595,16.5119 9.02621,16.1786 3.5,16.5C 3.23166,13.8806 3.565,11.3806 4.5,9C 8.82056,8.50098 13.1539,8.33432 17.5,8.5 Z"/></g>
<g><path style="opacity:1" fill="#fbf4f3" d="M 27.5,17.5 C 27.336,23.4877 24.836,24.821 20,21.5C 19.51,20.2068 19.3433,18.8734 19.5,17.5C 22.1667,14.8333 24.8333,14.8333 27.5,17.5 Z"/></g>
<g><path style="opacity:1" fill="#eb5429" d="M 3.5,16.5 C 9.02621,16.1786 14.3595,16.5119 19.5,17.5C 19.3433,18.8734 19.51,20.2068 20,21.5C 24.836,24.821 27.336,23.4877 27.5,17.5C 32.6405,16.5119 37.9738,16.1786 43.5,16.5C 43.5,18.8333 43.5,21.1667 43.5,23.5C 38.3302,25.1487 32.9968,26.1487 27.5,26.5C 24.8333,25.1667 22.1667,25.1667 19.5,26.5C 14.1105,26.1596 8.77716,25.493 3.5,24.5C 3.5,21.8333 3.5,19.1667 3.5,16.5 Z"/></g>
<g><path style="opacity:1" fill="#c84420" d="M 43.5,23.5 C 43.5,26.8333 43.5,30.1667 43.5,33.5C 30.1547,38.8321 16.8214,38.8321 3.5,33.5C 3.5,30.5 3.5,27.5 3.5,24.5C 8.77716,25.493 14.1105,26.1596 19.5,26.5C 17.0156,28.5452 16.0156,31.2118 16.5,34.5C 21.1667,34.5 25.8333,34.5 30.5,34.5C 30.9844,31.2118 29.9844,28.5452 27.5,26.5C 32.9968,26.1487 38.3302,25.1487 43.5,23.5 Z"/></g>
<g><path style="opacity:1" fill="#fdf8f7" d="M 27.5,26.5 C 29.9844,28.5452 30.9844,31.2118 30.5,34.5C 25.8333,34.5 21.1667,34.5 16.5,34.5C 16.0156,31.2118 17.0156,28.5452 19.5,26.5C 22.1667,25.1667 24.8333,25.1667 27.5,26.5 Z"/></g>
<g><path style="opacity:0.989" fill="#d74922" d="M 3.5,33.5 C 16.8214,38.8321 30.1547,38.8321 43.5,33.5C 43.5,35.8333 43.5,38.1667 43.5,40.5C 30.1667,40.5 16.8333,40.5 3.5,40.5C 3.5,38.1667 3.5,35.8333 3.5,33.5 Z"/></g>
</svg>
